# xmcd
#
# Track frame offsets: 
#        150
#        14968
#        31297
#        44640
#        60030
#        73595
#        87161
#        102895
#        121316
#        138039
#        153892
#        168743
#        192157
#        206969
#        225437
#        243858
#        259025
#        275546
#        287646
#        301186
#
# Disc length: 4254 seconds
#
# Revision: 0
# Processed by: cddbd v1.5.2PL0 Copyright (c) Steve Scherf et al.
# Submitted via: ExactAudioCopy v1.0b3
#
DISCID=12109c14
DTITLE=Various Artist - Masters Of Trance Vol. 2 - CD 2
DYEAR=1900
DGENRE=
TTITLE0=Cascada - How Do You Do (Original Radio Edit)
TTITLE1=DJ Klubbingman Feat. Trixi Delgado - Love Message (Original Ra
TTITLE1=dio Cut)
TTITLE2=Special D. - Here I Am (Single Edit)
TTITLE3=Alex Megane - Little Lies (Original Radio Edit)
TTITLE4=Andy Lopez - Noche Del Amor (DJ Manian Radio Edit)
TTITLE5=DJ Manian - Heat Of The Moment (Single Mix)
TTITLE6=Dyce - Tomorrow Can Wait (Cascada Radio Mix)
TTITLE7=Paffendorf - Under My Skin (Radio Edit)
TTITLE8=Keira Green - My Heart Goes Up
TTITLE9=Blister - Summertime (Wanna Feel It) (Dan Winter Radio Remix)
TTITLE10=Outatime - Last Night A DJ Saved My Life (Dan Winter Radio Ed
TTITLE10=it)
TTITLE11=Trouble Shooterz - 1, 2 Dance (DJ Tom Remix)
TTITLE12=Bulldozzer - Funky Groove (Tune Up! Edit)
TTITLE13=Denga and Manus - Cenwen (Vengeance Radio Mix)
TTITLE14=Ferry Corsten - Star Traveller (Hydroid Remix Edit)
TTITLE15=Sound Driller - Get Away (Fabio Vega Remix Edit)
TTITLE16=Fabio Vega - No Way Out (Chris Cute Rmx Edit)
TTITLE17=Tunnel Allstars - Das Boot (Vocal Radio Mix)
TTITLE18=Desperate Deejays - Energized Work (New Club Edit)
TTITLE19=Benassi Bros. Feat. Dhany - Rocket In The Sky (Radio Edit)
EXTD=
EXTT0=
EXTT1=
EXTT2=
EXTT3=
EXTT4=
EXTT5=
EXTT6=
EXTT7=
EXTT8=
EXTT9=
EXTT10=
EXTT11=
EXTT12=
EXTT13=
EXTT14=
EXTT15=
EXTT16=
EXTT17=
EXTT18=
EXTT19=
PLAYORDER=
